<svg width="193" height="193" viewBox="0 0 193 193" fill="none" xmlns="http://www.w3.org/2000/svg">
<path d="M31.9406 83.2521L18.8416 86.7848L2 113.28L26.3267 136.777M82.4654 191L54.396 163.888M82.4654 191L97.4356 164.504M82.4654 191L112.406 180.906M97.4356 164.504L125.505 156.026M97.4356 164.504L83.401 151.257L79.3514 147.448L67.4951 146.841M18.8416 88.5511L41.297 110.252M41.297 110.252L26.3267 136.777M41.297 110.252L54.396 122.112M26.3267 136.777L54.396 163.888M54.396 163.888L65.9393 143.933M65.9393 143.933L60.0099 132.71L54.396 122.112M65.9393 143.933L67.4951 146.841M112.406 180.906L125.505 156.026M112.406 180.906L140.101 171.57M125.505 156.026L140.475 150.374L140.111 150.511L172.287 152.14L151.076 151.066M140.101 171.57L161.059 164.504L166.673 151.856L151.076 151.066M140.101 171.57L151.076 151.066M54.396 122.112L66.7172 145.387L67.4951 146.841M54.396 122.112L67.4951 146.841" stroke="#B084D3" stroke-width="3" stroke-linecap="round" stroke-linejoin="round"/>
<path d="M56.2672 42.6265L41.2969 40.8601M41.2969 40.8601L24.4553 67.3554L36.889 90.3181M41.2969 40.8601L56.2672 63.8227M67.4949 146.841L52.5246 118.58M67.4949 146.841L84.3365 118.58M67.4949 146.841L108.663 148.923M191 125.645L172.287 152.14L140.475 150.532M191 125.645H177.901L172.287 134.477M191 125.645L185.386 115.047M84.3365 118.58L74.9801 102.683L54.3959 95.6171M84.3365 118.58L123.634 120.346M56.2672 63.8227L36.889 90.3181M56.2672 63.8227L54.3959 95.6171M36.889 90.3181L52.5246 118.58M52.5246 118.58L66.8041 99.8762L54.3959 95.6171M123.634 120.346L108.663 148.923M123.634 120.346L116.148 116.813L136.733 123.879L172.287 134.477M108.663 148.923L140.475 150.532M140.475 150.532L153.574 128.899L172.287 134.477" stroke="#D3FF4E" stroke-width="3" stroke-linecap="round" stroke-linejoin="round"/>
<path d="M54.3958 95.6168L71.2373 67.3551M54.3958 95.6168L95.5641 109.748M54.3958 95.6168L56.1066 67.3551M189.128 107.981L172.287 134.477L136.732 123.879M189.128 107.981L151.703 95.6168M189.128 107.981L187.257 81.486M71.2373 67.3551L73.1086 40.8598M71.2373 67.3551L112.406 81.486M74.9799 2L58.1383 33.7944L57.2829 47.9252M74.9799 2L73.1086 23.1963M74.9799 2L112.406 15.342M73.1086 23.1963L185.386 62.0561M73.1086 23.1963L73.1086 40.8598M73.1086 23.1963L57.2829 47.9252M73.1086 40.8598L187.257 81.486M73.1086 40.8598L56.1066 67.3551M95.5641 109.748L112.406 81.486M95.5641 109.748L136.732 123.879M112.406 81.486L151.703 95.6168M112.406 81.486V15.342M151.703 95.6168L136.732 123.879M151.703 95.6168V29.5132M151.703 29.5132L112.406 15.342M151.703 29.5132L119.136 17.8972L183.515 40.8598L185.386 62.0561M185.386 62.0561L187.257 81.486M57.2829 47.9252L56.1066 67.3551" stroke="#E7E5E6" stroke-width="3" stroke-linecap="round" stroke-linejoin="round"/>
</svg>
