<svg width="58" height="58" viewBox="0 0 58 58" fill="none" xmlns="http://www.w3.org/2000/svg">
<path d="M58 58L0 0H18L58 40V58Z" fill="#21C004"/>
<path d="M17.9247 8.32784C18.2194 8.97234 18.1227 9.53858 17.6347 10.0266C17.2664 10.3948 16.8567 10.5468 16.4056 10.4823C15.9636 10.4271 15.5171 10.1739 15.0659 9.72272L13.0634 7.72017L17.2066 3.57697L19.0572 5.4276C19.5268 5.89716 19.7984 6.35291 19.8721 6.79486C19.9549 7.22759 19.8168 7.6235 19.4577 7.98257C19.0066 8.43372 18.4956 8.54881 17.9247 8.32784ZM16.2951 6.09051L17.3447 7.14012C17.5841 7.37951 17.7958 7.50841 17.98 7.52682C18.1641 7.54524 18.3529 7.45777 18.5462 7.26442C18.712 7.09869 18.781 6.91915 18.7534 6.7258C18.735 6.52325 18.6291 6.32529 18.4357 6.13194L17.3447 5.0409L16.2951 6.09051ZM15.646 8.97694C15.867 9.19791 16.0833 9.32221 16.2951 9.34983C16.5161 9.36825 16.7186 9.28538 16.9028 9.10124C17.0869 8.9171 17.1606 8.70533 17.1237 8.46595C17.0961 8.23577 16.9672 8.00559 16.737 7.77541L15.6736 6.71199L14.5273 7.85828L15.646 8.97694ZM19.2506 14.0455C18.6153 13.4102 18.2976 12.7058 18.2976 11.9324C18.316 11.159 18.6475 10.4501 19.292 9.80558C19.9273 9.17029 20.6362 8.84804 21.4188 8.83884C22.2015 8.82963 22.9058 9.13807 23.5319 9.76415C24.1672 10.3994 24.4756 11.1038 24.4572 11.8772C24.4572 12.6506 24.1349 13.3595 23.4904 14.004C22.8552 14.6393 22.1462 14.9616 21.3636 14.9708C20.581 14.98 19.8767 14.6715 19.2506 14.0455ZM19.9549 13.3411C20.3324 13.7186 20.7651 13.8935 21.2531 13.8659C21.7503 13.8291 22.2153 13.5943 22.648 13.1616C23.0807 12.7288 23.3109 12.2685 23.3385 11.7805C23.3754 11.2833 23.205 10.846 22.8275 10.4685C22.45 10.091 22.0127 9.92067 21.5155 9.9575C21.0275 9.98512 20.5672 10.2153 20.1345 10.648C19.7017 11.0808 19.4669 11.5457 19.4301 12.0429C19.4025 12.5309 19.5774 12.9636 19.9549 13.3411ZM25.9902 20.647L25.1615 19.8183L28.5728 16.4071L26.8603 14.6946L25.3687 16.1861C24.6321 16.9227 24.0337 17.3462 23.5733 17.4567C23.1314 17.5672 22.7078 17.4199 22.3027 17.0148C22.1738 16.8859 22.0541 16.7478 21.9437 16.6004L22.7032 15.8409L22.9242 16.0618C23.0531 16.1907 23.1728 16.2644 23.2833 16.2828C23.403 16.292 23.5641 16.2229 23.7667 16.0756C23.9692 15.9283 24.2592 15.6659 24.6367 15.2884L26.7774 13.1478L30.1334 16.5038L25.9902 20.647ZM29.0147 23.8096C28.3794 23.1743 28.0618 22.47 28.0618 21.6966C28.0802 20.9232 28.4117 20.2142 29.0562 19.5697C29.6914 18.9344 30.4004 18.6122 31.183 18.603C31.9656 18.5938 32.6699 18.9022 33.296 19.5283C33.9313 20.1636 34.2398 20.8679 34.2213 21.6413C34.2213 22.4147 33.8991 23.1237 33.2546 23.7682C32.6193 24.4035 31.9104 24.7257 31.1278 24.7349C30.3452 24.7441 29.6408 24.4357 29.0147 23.8096ZM29.7191 23.1053C30.0966 23.4828 30.5293 23.6577 31.0173 23.6301C31.5145 23.5932 31.9794 23.3585 32.4121 22.9257C32.8449 22.493 33.0751 22.0326 33.1027 21.5447C33.1395 21.0475 32.9692 20.6101 32.5917 20.2326C32.2142 19.8552 31.7769 19.6848 31.2797 19.7217C30.7917 19.7493 30.3313 19.9795 29.8986 20.4122C29.4659 20.8449 29.2311 21.3099 29.1943 21.8071C29.1666 22.295 29.3416 22.7278 29.7191 23.1053ZM39.1656 25.5359L39.9942 26.3646L35.851 30.5078L35.0224 29.6792L36.7625 27.939L34.7462 25.9226L33.006 27.6628L32.1774 26.8342L36.3206 22.6909L37.1492 23.5196L35.4919 25.1769L37.5083 27.1932L39.1656 25.5359ZM44.5932 30.9635L43.8612 31.6955L42.3697 30.204L38.9584 33.6152L38.1298 32.7866L41.541 29.3753L40.0495 27.8838L40.7814 27.1518L44.5932 30.9635ZM43.5712 34.6096C43.2489 35.0239 43.0924 35.4474 43.1016 35.8802C43.1292 36.3129 43.3226 36.7088 43.6817 37.0679C44.2249 37.6111 44.8141 37.8413 45.4494 37.7584L45.5185 38.8218C45.1134 38.8587 44.6898 38.7942 44.2479 38.6285C43.8152 38.472 43.3916 38.1865 42.9773 37.7722C42.3144 37.1093 41.9922 36.3911 42.0106 35.6177C42.0382 34.8536 42.3697 34.1538 43.0049 33.5185C43.6402 32.8832 44.3446 32.5564 45.118 32.538C45.8914 32.5196 46.5819 32.8142 47.1896 33.4218C47.7972 34.0295 48.0873 34.7062 48.0597 35.452C48.0412 36.207 47.7052 36.9113 47.0515 37.5651C46.941 37.6755 46.8443 37.7538 46.7614 37.7998L43.5712 34.6096ZM46.499 34.1124C46.1768 33.7901 45.8131 33.6198 45.408 33.6014C45.0121 33.5922 44.6162 33.7211 44.2203 33.9881L46.5819 36.3497C46.8673 35.9538 47.0008 35.5625 46.9824 35.1758C46.9732 34.7799 46.8121 34.4254 46.499 34.1124ZM52.3548 38.587C52.898 39.1303 53.1374 39.7656 53.0729 40.4929C53.0177 41.2111 52.6678 41.8924 52.0233 42.5369C51.388 43.1722 50.7021 43.5175 49.9655 43.5727C49.2382 43.6371 48.6075 43.4024 48.0735 42.8684C47.788 42.5829 47.5763 42.2699 47.4382 41.9292C47.3185 41.5886 47.2816 41.2387 47.3277 40.8796L45.3942 42.8131L44.5655 41.9845L50.0898 36.4602L50.808 37.1784L50.2141 37.8827C50.61 37.8182 50.9875 37.8459 51.3466 37.9656C51.7241 38.0853 52.0601 38.2924 52.3548 38.587ZM48.5568 41.943C48.9251 42.3113 49.344 42.4724 49.8136 42.4264C50.2924 42.3712 50.7481 42.1272 51.1809 41.6944C51.6136 41.2617 51.853 40.8106 51.899 40.341C51.9543 39.8622 51.7977 39.4387 51.4295 39.0704C51.0612 38.7021 50.633 38.541 50.1451 38.587C49.6755 38.6331 49.2244 38.8725 48.7916 39.3052C48.3589 39.7379 48.1149 40.1937 48.0597 40.6725C48.0228 41.1512 48.1886 41.5748 48.5568 41.943Z" fill="black"/>
</svg>
