<svg width="1286" height="18" viewBox="0 0 1286 18" fill="none" xmlns="http://www.w3.org/2000/svg">
<path d="M10.9438 18L0.935764 0.719999H3.21576L12.0718 16.104L20.9038 0.719999H23.1838L13.1998 18H10.9438ZM25.2701 18V0.719999H27.2381V18H25.2701ZM44.2749 18L38.6349 11.28H41.1789L46.8429 17.976V18H44.2749ZM29.6829 18V0.743999H44.0829C44.6109 0.743999 45.0909 0.879999 45.5229 1.152C45.9709 1.408 46.3229 1.752 46.5789 2.184C46.8349 2.616 46.9629 3.096 46.9629 3.624V8.688C46.9629 9.216 46.8349 9.696 46.5789 10.128C46.3229 10.56 45.9709 10.912 45.5229 11.184C45.0909 11.44 44.6109 11.568 44.0829 11.568H31.6269V18H29.6829ZM32.5629 9.6H44.0829C44.3389 9.6 44.5549 9.512 44.7309 9.336C44.9229 9.16 45.0189 8.944 45.0189 8.688V3.624C45.0189 3.368 44.9229 3.152 44.7309 2.976C44.5549 2.784 44.3389 2.688 44.0829 2.688H32.5629C32.3069 2.688 32.0829 2.784 31.8909 2.976C31.7149 3.152 31.6269 3.368 31.6269 3.624V8.688C31.6269 8.944 31.7149 9.16 31.8909 9.336C32.0829 9.512 32.3069 9.6 32.5629 9.6ZM51.8396 18C51.3116 18 50.8236 17.872 50.3756 17.616C49.9436 17.36 49.5996 17.016 49.3436 16.584C49.0876 16.136 48.9596 15.648 48.9596 15.12V0.719999H50.9036V15.12C50.9036 15.376 50.9916 15.6 51.1676 15.792C51.3596 15.968 51.5836 16.056 51.8396 16.056H63.3596C63.6156 16.056 63.8316 15.968 64.0076 15.792C64.1996 15.6 64.2956 15.376 64.2956 15.12V0.719999H66.2396V15.12C66.2396 15.648 66.1116 16.136 65.8556 16.584C65.5996 17.016 65.2476 17.36 64.7996 17.616C64.3676 17.872 63.8876 18 63.3596 18H51.8396ZM71.1626 18C70.6346 18 70.1466 17.872 69.6986 17.616C69.2666 17.36 68.9226 17.016 68.6666 16.584C68.4106 16.136 68.2826 15.648 68.2826 15.12V14.448H70.2266V15.12C70.2266 15.376 70.3146 15.6 70.4906 15.792C70.6826 15.968 70.9066 16.056 71.1626 16.056H82.6826C82.9386 16.056 83.1546 15.968 83.3306 15.792C83.5226 15.6 83.6186 15.376 83.6186 15.12V11.256C83.6186 11 83.5226 10.784 83.3306 10.608C83.1546 10.432 82.9386 10.344 82.6826 10.344H71.1626C70.6346 10.344 70.1466 10.216 69.6986 9.96C69.2666 9.688 68.9226 9.336 68.6666 8.904C68.4106 8.472 68.2826 7.992 68.2826 7.464V3.6C68.2826 3.072 68.4106 2.592 68.6666 2.16C68.9226 1.712 69.2666 1.36 69.6986 1.104C70.1466 0.847999 70.6346 0.719999 71.1626 0.719999H82.6826C83.2106 0.719999 83.6906 0.847999 84.1226 1.104C84.5706 1.36 84.9226 1.712 85.1786 2.16C85.4346 2.592 85.5626 3.072 85.5626 3.6V4.272H83.6186V3.6C83.6186 3.344 83.5226 3.128 83.3306 2.952C83.1546 2.76 82.9386 2.664 82.6826 2.664H71.1626C70.9066 2.664 70.6826 2.76 70.4906 2.952C70.3146 3.128 70.2266 3.344 70.2266 3.6V7.464C70.2266 7.72 70.3146 7.936 70.4906 8.112C70.6826 8.288 70.9066 8.376 71.1626 8.376H82.6826C83.2106 8.376 83.6906 8.512 84.1226 8.784C84.5706 9.04 84.9226 9.384 85.1786 9.816C85.4346 10.248 85.5626 10.728 85.5626 11.256V15.12C85.5626 15.648 85.4346 16.136 85.1786 16.584C84.9226 17.016 84.5706 17.36 84.1226 17.616C83.6906 17.872 83.2106 18 82.6826 18H71.1626ZM103.22 18L93.212 0.719999H95.492L104.348 16.104L113.18 0.719999H115.46L105.476 18H103.22ZM117.546 18V0.719999H119.514V18H117.546ZM136.551 18L130.911 11.28H133.455L139.119 17.976V18H136.551ZM121.959 18V0.743999H136.359C136.887 0.743999 137.367 0.879999 137.799 1.152C138.247 1.408 138.599 1.752 138.855 2.184C139.111 2.616 139.239 3.096 139.239 3.624V8.688C139.239 9.216 139.111 9.696 138.855 10.128C138.599 10.56 138.247 10.912 137.799 11.184C137.367 11.44 136.887 11.568 136.359 11.568H123.903V18H121.959ZM124.839 9.6H136.359C136.615 9.6 136.831 9.512 137.007 9.336C137.199 9.16 137.295 8.944 137.295 8.688V3.624C137.295 3.368 137.199 3.152 137.007 2.976C136.831 2.784 136.615 2.688 136.359 2.688H124.839C124.583 2.688 124.359 2.784 124.167 2.976C123.991 3.152 123.903 3.368 123.903 3.624V8.688C123.903 8.944 123.991 9.16 124.167 9.336C124.359 9.512 124.583 9.6 124.839 9.6ZM144.116 18C143.588 18 143.1 17.872 142.652 17.616C142.22 17.36 141.876 17.016 141.62 16.584C141.364 16.136 141.236 15.648 141.236 15.12V0.719999H143.18V15.12C143.18 15.376 143.268 15.6 143.444 15.792C143.636 15.968 143.86 16.056 144.116 16.056H155.636C155.892 16.056 156.108 15.968 156.284 15.792C156.476 15.6 156.572 15.376 156.572 15.12V0.719999H158.516V15.12C158.516 15.648 158.388 16.136 158.132 16.584C157.876 17.016 157.524 17.36 157.076 17.616C156.644 17.872 156.164 18 155.636 18H144.116ZM163.439 18C162.911 18 162.423 17.872 161.975 17.616C161.543 17.36 161.199 17.016 160.943 16.584C160.687 16.136 160.559 15.648 160.559 15.12V14.448H162.503V15.12C162.503 15.376 162.591 15.6 162.767 15.792C162.959 15.968 163.183 16.056 163.439 16.056H174.959C175.215 16.056 175.431 15.968 175.607 15.792C175.799 15.6 175.895 15.376 175.895 15.12V11.256C175.895 11 175.799 10.784 175.607 10.608C175.431 10.432 175.215 10.344 174.959 10.344H163.439C162.911 10.344 162.423 10.216 161.975 9.96C161.543 9.688 161.199 9.336 160.943 8.904C160.687 8.472 160.559 7.992 160.559 7.464V3.6C160.559 3.072 160.687 2.592 160.943 2.16C161.199 1.712 161.543 1.36 161.975 1.104C162.423 0.847999 162.911 0.719999 163.439 0.719999H174.959C175.487 0.719999 175.967 0.847999 176.399 1.104C176.847 1.36 177.199 1.712 177.455 2.16C177.711 2.592 177.839 3.072 177.839 3.6V4.272H175.895V3.6C175.895 3.344 175.799 3.128 175.607 2.952C175.431 2.76 175.215 2.664 174.959 2.664H163.439C163.183 2.664 162.959 2.76 162.767 2.952C162.591 3.128 162.503 3.344 162.503 3.6V7.464C162.503 7.72 162.591 7.936 162.767 8.112C162.959 8.288 163.183 8.376 163.439 8.376H174.959C175.487 8.376 175.967 8.512 176.399 8.784C176.847 9.04 177.199 9.384 177.455 9.816C177.711 10.248 177.839 10.728 177.839 11.256V15.12C177.839 15.648 177.711 16.136 177.455 16.584C177.199 17.016 176.847 17.36 176.399 17.616C175.967 17.872 175.487 18 174.959 18H163.439ZM195.496 18L185.488 0.719999H187.768L196.624 16.104L205.456 0.719999H207.736L197.752 18H195.496ZM209.823 18V0.719999H211.791V18H209.823ZM228.827 18L223.187 11.28H225.731L231.395 17.976V18H228.827ZM214.235 18V0.743999H228.635C229.163 0.743999 229.643 0.879999 230.075 1.152C230.523 1.408 230.875 1.752 231.131 2.184C231.387 2.616 231.515 3.096 231.515 3.624V8.688C231.515 9.216 231.387 9.696 231.131 10.128C230.875 10.56 230.523 10.912 230.075 11.184C229.643 11.44 229.163 11.568 228.635 11.568H216.179V18H214.235ZM217.115 9.6H228.635C228.891 9.6 229.107 9.512 229.283 9.336C229.475 9.16 229.571 8.944 229.571 8.688V3.624C229.571 3.368 229.475 3.152 229.283 2.976C229.107 2.784 228.891 2.688 228.635 2.688H217.115C216.859 2.688 216.635 2.784 216.443 2.976C216.267 3.152 216.179 3.368 216.179 3.624V8.688C216.179 8.944 216.267 9.16 216.443 9.336C216.635 9.512 216.859 9.6 217.115 9.6ZM236.392 18C235.864 18 235.376 17.872 234.928 17.616C234.496 17.36 234.152 17.016 233.896 16.584C233.64 16.136 233.512 15.648 233.512 15.12V0.719999H235.456V15.12C235.456 15.376 235.544 15.6 235.72 15.792C235.912 15.968 236.136 16.056 236.392 16.056H247.912C248.168 16.056 248.384 15.968 248.56 15.792C248.752 15.6 248.848 15.376 248.848 15.12V0.719999H250.792V15.12C250.792 15.648 250.664 16.136 250.408 16.584C250.152 17.016 249.8 17.36 249.352 17.616C248.92 17.872 248.44 18 247.912 18H236.392ZM255.715 18C255.187 18 254.699 17.872 254.251 17.616C253.819 17.36 253.475 17.016 253.219 16.584C252.963 16.136 252.835 15.648 252.835 15.12V14.448H254.779V15.12C254.779 15.376 254.867 15.6 255.043 15.792C255.235 15.968 255.459 16.056 255.715 16.056H267.235C267.491 16.056 267.707 15.968 267.883 15.792C268.075 15.6 268.171 15.376 268.171 15.12V11.256C268.171 11 268.075 10.784 267.883 10.608C267.707 10.432 267.491 10.344 267.235 10.344H255.715C255.187 10.344 254.699 10.216 254.251 9.96C253.819 9.688 253.475 9.336 253.219 8.904C252.963 8.472 252.835 7.992 252.835 7.464V3.6C252.835 3.072 252.963 2.592 253.219 2.16C253.475 1.712 253.819 1.36 254.251 1.104C254.699 0.847999 255.187 0.719999 255.715 0.719999H267.235C267.763 0.719999 268.243 0.847999 268.675 1.104C269.123 1.36 269.475 1.712 269.731 2.16C269.987 2.592 270.115 3.072 270.115 3.6V4.272H268.171V3.6C268.171 3.344 268.075 3.128 267.883 2.952C267.707 2.76 267.491 2.664 267.235 2.664H255.715C255.459 2.664 255.235 2.76 255.043 2.952C254.867 3.128 254.779 3.344 254.779 3.6V7.464C254.779 7.72 254.867 7.936 255.043 8.112C255.235 8.288 255.459 8.376 255.715 8.376H267.235C267.763 8.376 268.243 8.512 268.675 8.784C269.123 9.04 269.475 9.384 269.731 9.816C269.987 10.248 270.115 10.728 270.115 11.256V15.12C270.115 15.648 269.987 16.136 269.731 16.584C269.475 17.016 269.123 17.36 268.675 17.616C268.243 17.872 267.763 18 267.235 18H255.715ZM287.773 18L277.764 0.719999H280.044L288.9 16.104L297.733 0.719999H300.013L290.028 18H287.773ZM302.099 18V0.719999H304.067V18H302.099ZM321.104 18L315.464 11.28H318.008L323.672 17.976V18H321.104ZM306.512 18V0.743999H320.912C321.44 0.743999 321.92 0.879999 322.352 1.152C322.8 1.408 323.152 1.752 323.408 2.184C323.664 2.616 323.792 3.096 323.792 3.624V8.688C323.792 9.216 323.664 9.696 323.408 10.128C323.152 10.56 322.8 10.912 322.352 11.184C321.92 11.44 321.44 11.568 320.912 11.568H308.456V18H306.512ZM309.392 9.6H320.912C321.168 9.6 321.384 9.512 321.56 9.336C321.752 9.16 321.848 8.944 321.848 8.688V3.624C321.848 3.368 321.752 3.152 321.56 2.976C321.384 2.784 321.168 2.688 320.912 2.688H309.392C309.136 2.688 308.912 2.784 308.72 2.976C308.544 3.152 308.456 3.368 308.456 3.624V8.688C308.456 8.944 308.544 9.16 308.72 9.336C308.912 9.512 309.136 9.6 309.392 9.6ZM328.668 18C328.14 18 327.652 17.872 327.204 17.616C326.772 17.36 326.428 17.016 326.172 16.584C325.916 16.136 325.788 15.648 325.788 15.12V0.719999H327.732V15.12C327.732 15.376 327.82 15.6 327.996 15.792C328.188 15.968 328.412 16.056 328.668 16.056H340.188C340.444 16.056 340.66 15.968 340.836 15.792C341.028 15.6 341.124 15.376 341.124 15.12V0.719999H343.068V15.12C343.068 15.648 342.94 16.136 342.684 16.584C342.428 17.016 342.076 17.36 341.628 17.616C341.196 17.872 340.716 18 340.188 18H328.668ZM347.991 18C347.463 18 346.975 17.872 346.527 17.616C346.095 17.36 345.751 17.016 345.495 16.584C345.239 16.136 345.111 15.648 345.111 15.12V14.448H347.055V15.12C347.055 15.376 347.143 15.6 347.319 15.792C347.511 15.968 347.735 16.056 347.991 16.056H359.511C359.767 16.056 359.983 15.968 360.159 15.792C360.351 15.6 360.447 15.376 360.447 15.12V11.256C360.447 11 360.351 10.784 360.159 10.608C359.983 10.432 359.767 10.344 359.511 10.344H347.991C347.463 10.344 346.975 10.216 346.527 9.96C346.095 9.688 345.751 9.336 345.495 8.904C345.239 8.472 345.111 7.992 345.111 7.464V3.6C345.111 3.072 345.239 2.592 345.495 2.16C345.751 1.712 346.095 1.36 346.527 1.104C346.975 0.847999 347.463 0.719999 347.991 0.719999H359.511C360.039 0.719999 360.519 0.847999 360.951 1.104C361.399 1.36 361.751 1.712 362.007 2.16C362.263 2.592 362.391 3.072 362.391 3.6V4.272H360.447V3.6C360.447 3.344 360.351 3.128 360.159 2.952C359.983 2.76 359.767 2.664 359.511 2.664H347.991C347.735 2.664 347.511 2.76 347.319 2.952C347.143 3.128 347.055 3.344 347.055 3.6V7.464C347.055 7.72 347.143 7.936 347.319 8.112C347.511 8.288 347.735 8.376 347.991 8.376H359.511C360.039 8.376 360.519 8.512 360.951 8.784C361.399 9.04 361.751 9.384 362.007 9.816C362.263 10.248 362.391 10.728 362.391 11.256V15.12C362.391 15.648 362.263 16.136 362.007 16.584C361.751 17.016 361.399 17.36 360.951 17.616C360.519 17.872 360.039 18 359.511 18H347.991ZM380.049 18L370.041 0.719999H372.321L381.177 16.104L390.009 0.719999H392.289L382.305 18H380.049ZM394.375 18V0.719999H396.343V18H394.375ZM413.38 18L407.74 11.28H410.284L415.948 17.976V18H413.38ZM398.788 18V0.743999H413.188C413.716 0.743999 414.196 0.879999 414.628 1.152C415.076 1.408 415.428 1.752 415.684 2.184C415.94 2.616 416.068 3.096 416.068 3.624V8.688C416.068 9.216 415.94 9.696 415.684 10.128C415.428 10.56 415.076 10.912 414.628 11.184C414.196 11.44 413.716 11.568 413.188 11.568H400.732V18H398.788ZM401.668 9.6H413.188C413.444 9.6 413.66 9.512 413.836 9.336C414.028 9.16 414.124 8.944 414.124 8.688V3.624C414.124 3.368 414.028 3.152 413.836 2.976C413.66 2.784 413.444 2.688 413.188 2.688H401.668C401.412 2.688 401.188 2.784 400.996 2.976C400.82 3.152 400.732 3.368 400.732 3.624V8.688C400.732 8.944 400.82 9.16 400.996 9.336C401.188 9.512 401.412 9.6 401.668 9.6ZM420.945 18C420.417 18 419.929 17.872 419.481 17.616C419.049 17.36 418.705 17.016 418.449 16.584C418.193 16.136 418.065 15.648 418.065 15.12V0.719999H420.009V15.12C420.009 15.376 420.097 15.6 420.273 15.792C420.465 15.968 420.689 16.056 420.945 16.056H432.465C432.721 16.056 432.937 15.968 433.113 15.792C433.305 15.6 433.401 15.376 433.401 15.12V0.719999H435.345V15.12C435.345 15.648 435.217 16.136 434.961 16.584C434.705 17.016 434.353 17.36 433.905 17.616C433.473 17.872 432.993 18 432.465 18H420.945ZM440.268 18C439.74 18 439.252 17.872 438.804 17.616C438.372 17.36 438.028 17.016 437.772 16.584C437.516 16.136 437.388 15.648 437.388 15.12V14.448H439.332V15.12C439.332 15.376 439.42 15.6 439.596 15.792C439.788 15.968 440.012 16.056 440.268 16.056H451.788C452.044 16.056 452.26 15.968 452.436 15.792C452.628 15.6 452.724 15.376 452.724 15.12V11.256C452.724 11 452.628 10.784 452.436 10.608C452.26 10.432 452.044 10.344 451.788 10.344H440.268C439.74 10.344 439.252 10.216 438.804 9.96C438.372 9.688 438.028 9.336 437.772 8.904C437.516 8.472 437.388 7.992 437.388 7.464V3.6C437.388 3.072 437.516 2.592 437.772 2.16C438.028 1.712 438.372 1.36 438.804 1.104C439.252 0.847999 439.74 0.719999 440.268 0.719999H451.788C452.316 0.719999 452.796 0.847999 453.228 1.104C453.676 1.36 454.028 1.712 454.284 2.16C454.54 2.592 454.668 3.072 454.668 3.6V4.272H452.724V3.6C452.724 3.344 452.628 3.128 452.436 2.952C452.26 2.76 452.044 2.664 451.788 2.664H440.268C440.012 2.664 439.788 2.76 439.596 2.952C439.42 3.128 439.332 3.344 439.332 3.6V7.464C439.332 7.72 439.42 7.936 439.596 8.112C439.788 8.288 440.012 8.376 440.268 8.376H451.788C452.316 8.376 452.796 8.512 453.228 8.784C453.676 9.04 454.028 9.384 454.284 9.816C454.54 10.248 454.668 10.728 454.668 11.256V15.12C454.668 15.648 454.54 16.136 454.284 16.584C454.028 17.016 453.676 17.36 453.228 17.616C452.796 17.872 452.316 18 451.788 18H440.268ZM472.325 18L462.317 0.719999H464.597L473.453 16.104L482.285 0.719999H484.565L474.581 18H472.325ZM486.651 18V0.719999H488.619V18H486.651ZM505.656 18L500.016 11.28H502.56L508.224 17.976V18H505.656ZM491.064 18V0.743999H505.464C505.992 0.743999 506.472 0.879999 506.904 1.152C507.352 1.408 507.704 1.752 507.96 2.184C508.216 2.616 508.344 3.096 508.344 3.624V8.688C508.344 9.216 508.216 9.696 507.96 10.128C507.704 10.56 507.352 10.912 506.904 11.184C506.472 11.44 505.992 11.568 505.464 11.568H493.008V18H491.064ZM493.944 9.6H505.464C505.72 9.6 505.936 9.512 506.112 9.336C506.304 9.16 506.4 8.944 506.4 8.688V3.624C506.4 3.368 506.304 3.152 506.112 2.976C505.936 2.784 505.72 2.688 505.464 2.688H493.944C493.688 2.688 493.464 2.784 493.272 2.976C493.096 3.152 493.008 3.368 493.008 3.624V8.688C493.008 8.944 493.096 9.16 493.272 9.336C493.464 9.512 493.688 9.6 493.944 9.6ZM513.221 18C512.693 18 512.205 17.872 511.757 17.616C511.325 17.36 510.981 17.016 510.725 16.584C510.469 16.136 510.341 15.648 510.341 15.12V0.719999H512.285V15.12C512.285 15.376 512.373 15.6 512.549 15.792C512.741 15.968 512.965 16.056 513.221 16.056H524.741C524.997 16.056 525.213 15.968 525.389 15.792C525.581 15.6 525.677 15.376 525.677 15.12V0.719999H527.621V15.12C527.621 15.648 527.493 16.136 527.237 16.584C526.981 17.016 526.629 17.36 526.181 17.616C525.749 17.872 525.269 18 524.741 18H513.221ZM532.544 18C532.016 18 531.528 17.872 531.08 17.616C530.648 17.36 530.304 17.016 530.048 16.584C529.792 16.136 529.664 15.648 529.664 15.12V14.448H531.608V15.12C531.608 15.376 531.696 15.6 531.872 15.792C532.064 15.968 532.288 16.056 532.544 16.056H544.064C544.32 16.056 544.536 15.968 544.712 15.792C544.904 15.6 545 15.376 545 15.12V11.256C545 11 544.904 10.784 544.712 10.608C544.536 10.432 544.32 10.344 544.064 10.344H532.544C532.016 10.344 531.528 10.216 531.08 9.96C530.648 9.688 530.304 9.336 530.048 8.904C529.792 8.472 529.664 7.992 529.664 7.464V3.6C529.664 3.072 529.792 2.592 530.048 2.16C530.304 1.712 530.648 1.36 531.08 1.104C531.528 0.847999 532.016 0.719999 532.544 0.719999H544.064C544.592 0.719999 545.072 0.847999 545.504 1.104C545.952 1.36 546.304 1.712 546.56 2.16C546.816 2.592 546.944 3.072 546.944 3.6V4.272H545V3.6C545 3.344 544.904 3.128 544.712 2.952C544.536 2.76 544.32 2.664 544.064 2.664H532.544C532.288 2.664 532.064 2.76 531.872 2.952C531.696 3.128 531.608 3.344 531.608 3.6V7.464C531.608 7.72 531.696 7.936 531.872 8.112C532.064 8.288 532.288 8.376 532.544 8.376H544.064C544.592 8.376 545.072 8.512 545.504 8.784C545.952 9.04 546.304 9.384 546.56 9.816C546.816 10.248 546.944 10.728 546.944 11.256V15.12C546.944 15.648 546.816 16.136 546.56 16.584C546.304 17.016 545.952 17.36 545.504 17.616C545.072 17.872 544.592 18 544.064 18H532.544ZM564.601 18L554.593 0.719999H556.873L565.729 16.104L574.561 0.719999H576.841L566.857 18H564.601ZM578.928 18V0.719999H580.896V18H578.928ZM597.932 18L592.292 11.28H594.836L600.5 17.976V18H597.932ZM583.34 18V0.743999H597.74C598.268 0.743999 598.748 0.879999 599.18 1.152C599.628 1.408 599.98 1.752 600.236 2.184C600.492 2.616 600.62 3.096 600.62 3.624V8.688C600.62 9.216 600.492 9.696 600.236 10.128C599.98 10.56 599.628 10.912 599.18 11.184C598.748 11.44 598.268 11.568 597.74 11.568H585.284V18H583.34ZM586.22 9.6H597.74C597.996 9.6 598.212 9.512 598.388 9.336C598.58 9.16 598.676 8.944 598.676 8.688V3.624C598.676 3.368 598.58 3.152 598.388 2.976C598.212 2.784 597.996 2.688 597.74 2.688H586.22C585.964 2.688 585.74 2.784 585.548 2.976C585.372 3.152 585.284 3.368 585.284 3.624V8.688C585.284 8.944 585.372 9.16 585.548 9.336C585.74 9.512 585.964 9.6 586.22 9.6ZM605.497 18C604.969 18 604.481 17.872 604.033 17.616C603.601 17.36 603.257 17.016 603.001 16.584C602.745 16.136 602.617 15.648 602.617 15.12V0.719999H604.561V15.12C604.561 15.376 604.649 15.6 604.825 15.792C605.017 15.968 605.241 16.056 605.497 16.056H617.017C617.273 16.056 617.489 15.968 617.665 15.792C617.857 15.6 617.953 15.376 617.953 15.12V0.719999H619.897V15.12C619.897 15.648 619.769 16.136 619.513 16.584C619.257 17.016 618.905 17.36 618.457 17.616C618.025 17.872 617.545 18 617.017 18H605.497ZM624.82 18C624.292 18 623.804 17.872 623.356 17.616C622.924 17.36 622.58 17.016 622.324 16.584C622.068 16.136 621.94 15.648 621.94 15.12V14.448H623.884V15.12C623.884 15.376 623.972 15.6 624.148 15.792C624.34 15.968 624.564 16.056 624.82 16.056H636.34C636.596 16.056 636.812 15.968 636.988 15.792C637.18 15.6 637.276 15.376 637.276 15.12V11.256C637.276 11 637.18 10.784 636.988 10.608C636.812 10.432 636.596 10.344 636.34 10.344H624.82C624.292 10.344 623.804 10.216 623.356 9.96C622.924 9.688 622.58 9.336 622.324 8.904C622.068 8.472 621.94 7.992 621.94 7.464V3.6C621.94 3.072 622.068 2.592 622.324 2.16C622.58 1.712 622.924 1.36 623.356 1.104C623.804 0.847999 624.292 0.719999 624.82 0.719999H636.34C636.868 0.719999 637.348 0.847999 637.78 1.104C638.228 1.36 638.58 1.712 638.836 2.16C639.092 2.592 639.22 3.072 639.22 3.6V4.272H637.276V3.6C637.276 3.344 637.18 3.128 636.988 2.952C636.812 2.76 636.596 2.664 636.34 2.664H624.82C624.564 2.664 624.34 2.76 624.148 2.952C623.972 3.128 623.884 3.344 623.884 3.6V7.464C623.884 7.72 623.972 7.936 624.148 8.112C624.34 8.288 624.564 8.376 624.82 8.376H636.34C636.868 8.376 637.348 8.512 637.78 8.784C638.228 9.04 638.58 9.384 638.836 9.816C639.092 10.248 639.22 10.728 639.22 11.256V15.12C639.22 15.648 639.092 16.136 638.836 16.584C638.58 17.016 638.228 17.36 637.78 17.616C637.348 17.872 636.868 18 636.34 18H624.82ZM656.878 18L646.87 0.719999H649.15L658.006 16.104L666.838 0.719999H669.118L659.134 18H656.878ZM671.204 18V0.719999H673.172V18H671.204ZM690.209 18L684.569 11.28H687.113L692.777 17.976V18H690.209ZM675.617 18V0.743999H690.017C690.545 0.743999 691.025 0.879999 691.457 1.152C691.905 1.408 692.257 1.752 692.513 2.184C692.769 2.616 692.897 3.096 692.897 3.624V8.688C692.897 9.216 692.769 9.696 692.513 10.128C692.257 10.56 691.905 10.912 691.457 11.184C691.025 11.44 690.545 11.568 690.017 11.568H677.561V18H675.617ZM678.497 9.6H690.017C690.273 9.6 690.489 9.512 690.665 9.336C690.857 9.16 690.953 8.944 690.953 8.688V3.624C690.953 3.368 690.857 3.152 690.665 2.976C690.489 2.784 690.273 2.688 690.017 2.688H678.497C678.241 2.688 678.017 2.784 677.825 2.976C677.649 3.152 677.561 3.368 677.561 3.624V8.688C677.561 8.944 677.649 9.16 677.825 9.336C678.017 9.512 678.241 9.6 678.497 9.6ZM697.773 18C697.245 18 696.757 17.872 696.309 17.616C695.877 17.36 695.533 17.016 695.277 16.584C695.021 16.136 694.893 15.648 694.893 15.12V0.719999H696.837V15.12C696.837 15.376 696.925 15.6 697.101 15.792C697.293 15.968 697.517 16.056 697.773 16.056H709.293C709.549 16.056 709.765 15.968 709.941 15.792C710.133 15.6 710.229 15.376 710.229 15.12V0.719999H712.173V15.12C712.173 15.648 712.045 16.136 711.789 16.584C711.533 17.016 711.181 17.36 710.733 17.616C710.301 17.872 709.821 18 709.293 18H697.773ZM717.096 18C716.568 18 716.08 17.872 715.632 17.616C715.2 17.36 714.856 17.016 714.6 16.584C714.344 16.136 714.216 15.648 714.216 15.12V14.448H716.16V15.12C716.16 15.376 716.248 15.6 716.424 15.792C716.616 15.968 716.84 16.056 717.096 16.056H728.616C728.872 16.056 729.088 15.968 729.264 15.792C729.456 15.6 729.552 15.376 729.552 15.12V11.256C729.552 11 729.456 10.784 729.264 10.608C729.088 10.432 728.872 10.344 728.616 10.344H717.096C716.568 10.344 716.08 10.216 715.632 9.96C715.2 9.688 714.856 9.336 714.6 8.904C714.344 8.472 714.216 7.992 714.216 7.464V3.6C714.216 3.072 714.344 2.592 714.6 2.16C714.856 1.712 715.2 1.36 715.632 1.104C716.08 0.847999 716.568 0.719999 717.096 0.719999H728.616C729.144 0.719999 729.624 0.847999 730.056 1.104C730.504 1.36 730.856 1.712 731.112 2.16C731.368 2.592 731.496 3.072 731.496 3.6V4.272H729.552V3.6C729.552 3.344 729.456 3.128 729.264 2.952C729.088 2.76 728.872 2.664 728.616 2.664H717.096C716.84 2.664 716.616 2.76 716.424 2.952C716.248 3.128 716.16 3.344 716.16 3.6V7.464C716.16 7.72 716.248 7.936 716.424 8.112C716.616 8.288 716.84 8.376 717.096 8.376H728.616C729.144 8.376 729.624 8.512 730.056 8.784C730.504 9.04 730.856 9.384 731.112 9.816C731.368 10.248 731.496 10.728 731.496 11.256V15.12C731.496 15.648 731.368 16.136 731.112 16.584C730.856 17.016 730.504 17.36 730.056 17.616C729.624 17.872 729.144 18 728.616 18H717.096ZM749.154 18L739.146 0.719999H741.426L750.282 16.104L759.114 0.719999H761.394L751.41 18H749.154ZM763.48 18V0.719999H765.448V18H763.48ZM782.485 18L776.845 11.28H779.389L785.053 17.976V18H782.485ZM767.893 18V0.743999H782.293C782.821 0.743999 783.301 0.879999 783.733 1.152C784.181 1.408 784.533 1.752 784.789 2.184C785.045 2.616 785.173 3.096 785.173 3.624V8.688C785.173 9.216 785.045 9.696 784.789 10.128C784.533 10.56 784.181 10.912 783.733 11.184C783.301 11.44 782.821 11.568 782.293 11.568H769.837V18H767.893ZM770.773 9.6H782.293C782.549 9.6 782.765 9.512 782.941 9.336C783.133 9.16 783.229 8.944 783.229 8.688V3.624C783.229 3.368 783.133 3.152 782.941 2.976C782.765 2.784 782.549 2.688 782.293 2.688H770.773C770.517 2.688 770.293 2.784 770.101 2.976C769.925 3.152 769.837 3.368 769.837 3.624V8.688C769.837 8.944 769.925 9.16 770.101 9.336C770.293 9.512 770.517 9.6 770.773 9.6ZM790.05 18C789.522 18 789.034 17.872 788.586 17.616C788.154 17.36 787.81 17.016 787.554 16.584C787.298 16.136 787.17 15.648 787.17 15.12V0.719999H789.114V15.12C789.114 15.376 789.202 15.6 789.378 15.792C789.57 15.968 789.794 16.056 790.05 16.056H801.57C801.826 16.056 802.042 15.968 802.218 15.792C802.41 15.6 802.506 15.376 802.506 15.12V0.719999H804.45V15.12C804.45 15.648 804.322 16.136 804.066 16.584C803.81 17.016 803.458 17.36 803.01 17.616C802.578 17.872 802.098 18 801.57 18H790.05ZM809.373 18C808.845 18 808.357 17.872 807.909 17.616C807.477 17.36 807.133 17.016 806.877 16.584C806.621 16.136 806.493 15.648 806.493 15.12V14.448H808.437V15.12C808.437 15.376 808.525 15.6 808.701 15.792C808.893 15.968 809.117 16.056 809.373 16.056H820.893C821.149 16.056 821.365 15.968 821.541 15.792C821.733 15.6 821.829 15.376 821.829 15.12V11.256C821.829 11 821.733 10.784 821.541 10.608C821.365 10.432 821.149 10.344 820.893 10.344H809.373C808.845 10.344 808.357 10.216 807.909 9.96C807.477 9.688 807.133 9.336 806.877 8.904C806.621 8.472 806.493 7.992 806.493 7.464V3.6C806.493 3.072 806.621 2.592 806.877 2.16C807.133 1.712 807.477 1.36 807.909 1.104C808.357 0.847999 808.845 0.719999 809.373 0.719999H820.893C821.421 0.719999 821.901 0.847999 822.333 1.104C822.781 1.36 823.133 1.712 823.389 2.16C823.645 2.592 823.773 3.072 823.773 3.6V4.272H821.829V3.6C821.829 3.344 821.733 3.128 821.541 2.952C821.365 2.76 821.149 2.664 820.893 2.664H809.373C809.117 2.664 808.893 2.76 808.701 2.952C808.525 3.128 808.437 3.344 808.437 3.6V7.464C808.437 7.72 808.525 7.936 808.701 8.112C808.893 8.288 809.117 8.376 809.373 8.376H820.893C821.421 8.376 821.901 8.512 822.333 8.784C822.781 9.04 823.133 9.384 823.389 9.816C823.645 10.248 823.773 10.728 823.773 11.256V15.12C823.773 15.648 823.645 16.136 823.389 16.584C823.133 17.016 822.781 17.36 822.333 17.616C821.901 17.872 821.421 18 820.893 18H809.373ZM841.43 18L831.422 0.719999H833.702L842.558 16.104L851.39 0.719999H853.67L843.686 18H841.43ZM855.756 18V0.719999H857.724V18H855.756ZM874.761 18L869.121 11.28H871.665L877.329 17.976V18H874.761ZM860.169 18V0.743999H874.569C875.097 0.743999 875.577 0.879999 876.009 1.152C876.457 1.408 876.809 1.752 877.065 2.184C877.321 2.616 877.449 3.096 877.449 3.624V8.688C877.449 9.216 877.321 9.696 877.065 10.128C876.809 10.56 876.457 10.912 876.009 11.184C875.577 11.44 875.097 11.568 874.569 11.568H862.113V18H860.169ZM863.049 9.6H874.569C874.825 9.6 875.041 9.512 875.217 9.336C875.409 9.16 875.505 8.944 875.505 8.688V3.624C875.505 3.368 875.409 3.152 875.217 2.976C875.041 2.784 874.825 2.688 874.569 2.688H863.049C862.793 2.688 862.569 2.784 862.377 2.976C862.201 3.152 862.113 3.368 862.113 3.624V8.688C862.113 8.944 862.201 9.16 862.377 9.336C862.569 9.512 862.793 9.6 863.049 9.6ZM882.326 18C881.798 18 881.31 17.872 880.862 17.616C880.43 17.36 880.086 17.016 879.83 16.584C879.574 16.136 879.446 15.648 879.446 15.12V0.719999H881.39V15.12C881.39 15.376 881.478 15.6 881.654 15.792C881.846 15.968 882.07 16.056 882.326 16.056H893.846C894.102 16.056 894.318 15.968 894.494 15.792C894.686 15.6 894.782 15.376 894.782 15.12V0.719999H896.726V15.12C896.726 15.648 896.598 16.136 896.342 16.584C896.086 17.016 895.734 17.36 895.286 17.616C894.854 17.872 894.374 18 893.846 18H882.326ZM901.649 18C901.121 18 900.633 17.872 900.185 17.616C899.753 17.36 899.409 17.016 899.153 16.584C898.897 16.136 898.769 15.648 898.769 15.12V14.448H900.713V15.12C900.713 15.376 900.801 15.6 900.977 15.792C901.169 15.968 901.393 16.056 901.649 16.056H913.169C913.425 16.056 913.641 15.968 913.817 15.792C914.009 15.6 914.105 15.376 914.105 15.12V11.256C914.105 11 914.009 10.784 913.817 10.608C913.641 10.432 913.425 10.344 913.169 10.344H901.649C901.121 10.344 900.633 10.216 900.185 9.96C899.753 9.688 899.409 9.336 899.153 8.904C898.897 8.472 898.769 7.992 898.769 7.464V3.6C898.769 3.072 898.897 2.592 899.153 2.16C899.409 1.712 899.753 1.36 900.185 1.104C900.633 0.847999 901.121 0.719999 901.649 0.719999H913.169C913.697 0.719999 914.177 0.847999 914.609 1.104C915.057 1.36 915.409 1.712 915.665 2.16C915.921 2.592 916.049 3.072 916.049 3.6V4.272H914.105V3.6C914.105 3.344 914.009 3.128 913.817 2.952C913.641 2.76 913.425 2.664 913.169 2.664H901.649C901.393 2.664 901.169 2.76 900.977 2.952C900.801 3.128 900.713 3.344 900.713 3.6V7.464C900.713 7.72 900.801 7.936 900.977 8.112C901.169 8.288 901.393 8.376 901.649 8.376H913.169C913.697 8.376 914.177 8.512 914.609 8.784C915.057 9.04 915.409 9.384 915.665 9.816C915.921 10.248 916.049 10.728 916.049 11.256V15.12C916.049 15.648 915.921 16.136 915.665 16.584C915.409 17.016 915.057 17.36 914.609 17.616C914.177 17.872 913.697 18 913.169 18H901.649ZM933.706 18L923.698 0.719999H925.978L934.834 16.104L943.666 0.719999H945.946L935.962 18H933.706ZM948.033 18V0.719999H950.001V18H948.033ZM967.037 18L961.397 11.28H963.941L969.605 17.976V18H967.037ZM952.445 18V0.743999H966.845C967.373 0.743999 967.853 0.879999 968.285 1.152C968.733 1.408 969.085 1.752 969.341 2.184C969.597 2.616 969.725 3.096 969.725 3.624V8.688C969.725 9.216 969.597 9.696 969.341 10.128C969.085 10.56 968.733 10.912 968.285 11.184C967.853 11.44 967.373 11.568 966.845 11.568H954.389V18H952.445ZM955.325 9.6H966.845C967.101 9.6 967.317 9.512 967.493 9.336C967.685 9.16 967.781 8.944 967.781 8.688V3.624C967.781 3.368 967.685 3.152 967.493 2.976C967.317 2.784 967.101 2.688 966.845 2.688H955.325C955.069 2.688 954.845 2.784 954.653 2.976C954.477 3.152 954.389 3.368 954.389 3.624V8.688C954.389 8.944 954.477 9.16 954.653 9.336C954.845 9.512 955.069 9.6 955.325 9.6ZM974.602 18C974.074 18 973.586 17.872 973.138 17.616C972.706 17.36 972.362 17.016 972.106 16.584C971.85 16.136 971.722 15.648 971.722 15.12V0.719999H973.666V15.12C973.666 15.376 973.754 15.6 973.93 15.792C974.122 15.968 974.346 16.056 974.602 16.056H986.122C986.378 16.056 986.594 15.968 986.77 15.792C986.962 15.6 987.058 15.376 987.058 15.12V0.719999H989.002V15.12C989.002 15.648 988.874 16.136 988.618 16.584C988.362 17.016 988.01 17.36 987.562 17.616C987.13 17.872 986.65 18 986.122 18H974.602ZM993.925 18C993.397 18 992.909 17.872 992.461 17.616C992.029 17.36 991.685 17.016 991.429 16.584C991.173 16.136 991.045 15.648 991.045 15.12V14.448H992.989V15.12C992.989 15.376 993.077 15.6 993.253 15.792C993.445 15.968 993.669 16.056 993.925 16.056H1005.45C1005.7 16.056 1005.92 15.968 1006.09 15.792C1006.29 15.6 1006.38 15.376 1006.38 15.12V11.256C1006.38 11 1006.29 10.784 1006.09 10.608C1005.92 10.432 1005.7 10.344 1005.45 10.344H993.925C993.397 10.344 992.909 10.216 992.461 9.96C992.029 9.688 991.685 9.336 991.429 8.904C991.173 8.472 991.045 7.992 991.045 7.464V3.6C991.045 3.072 991.173 2.592 991.429 2.16C991.685 1.712 992.029 1.36 992.461 1.104C992.909 0.847999 993.397 0.719999 993.925 0.719999H1005.45C1005.97 0.719999 1006.45 0.847999 1006.89 1.104C1007.33 1.36 1007.69 1.712 1007.94 2.16C1008.2 2.592 1008.33 3.072 1008.33 3.6V4.272H1006.38V3.6C1006.38 3.344 1006.29 3.128 1006.09 2.952C1005.92 2.76 1005.7 2.664 1005.45 2.664H993.925C993.669 2.664 993.445 2.76 993.253 2.952C993.077 3.128 992.989 3.344 992.989 3.6V7.464C992.989 7.72 993.077 7.936 993.253 8.112C993.445 8.288 993.669 8.376 993.925 8.376H1005.45C1005.97 8.376 1006.45 8.512 1006.89 8.784C1007.33 9.04 1007.69 9.384 1007.94 9.816C1008.2 10.248 1008.33 10.728 1008.33 11.256V15.12C1008.33 15.648 1008.2 16.136 1007.94 16.584C1007.69 17.016 1007.33 17.36 1006.89 17.616C1006.45 17.872 1005.97 18 1005.45 18H993.925ZM1025.98 18L1015.97 0.719999H1018.25L1027.11 16.104L1035.94 0.719999H1038.22L1028.24 18H1025.98ZM1040.31 18V0.719999H1042.28V18H1040.31ZM1059.31 18L1053.67 11.28H1056.22L1061.88 17.976V18H1059.31ZM1044.72 18V0.743999H1059.12C1059.65 0.743999 1060.13 0.879999 1060.56 1.152C1061.01 1.408 1061.36 1.752 1061.62 2.184C1061.87 2.616 1062 3.096 1062 3.624V8.688C1062 9.216 1061.87 9.696 1061.62 10.128C1061.36 10.56 1061.01 10.912 1060.56 11.184C1060.13 11.44 1059.65 11.568 1059.12 11.568H1046.67V18H1044.72ZM1047.6 9.6H1059.12C1059.38 9.6 1059.59 9.512 1059.77 9.336C1059.96 9.16 1060.06 8.944 1060.06 8.688V3.624C1060.06 3.368 1059.96 3.152 1059.77 2.976C1059.59 2.784 1059.38 2.688 1059.12 2.688H1047.6C1047.35 2.688 1047.12 2.784 1046.93 2.976C1046.75 3.152 1046.67 3.368 1046.67 3.624V8.688C1046.67 8.944 1046.75 9.16 1046.93 9.336C1047.12 9.512 1047.35 9.6 1047.6 9.6ZM1066.88 18C1066.35 18 1065.86 17.872 1065.41 17.616C1064.98 17.36 1064.64 17.016 1064.38 16.584C1064.13 16.136 1064 15.648 1064 15.12V0.719999H1065.94V15.12C1065.94 15.376 1066.03 15.6 1066.21 15.792C1066.4 15.968 1066.62 16.056 1066.88 16.056H1078.4C1078.65 16.056 1078.87 15.968 1079.05 15.792C1079.24 15.6 1079.33 15.376 1079.33 15.12V0.719999H1081.28V15.12C1081.28 15.648 1081.15 16.136 1080.89 16.584C1080.64 17.016 1080.29 17.36 1079.84 17.616C1079.41 17.872 1078.93 18 1078.4 18H1066.88ZM1086.2 18C1085.67 18 1085.19 17.872 1084.74 17.616C1084.31 17.36 1083.96 17.016 1083.71 16.584C1083.45 16.136 1083.32 15.648 1083.32 15.12V14.448H1085.27V15.12C1085.27 15.376 1085.35 15.6 1085.53 15.792C1085.72 15.968 1085.95 16.056 1086.2 16.056H1097.72C1097.98 16.056 1098.19 15.968 1098.37 15.792C1098.56 15.6 1098.66 15.376 1098.66 15.12V11.256C1098.66 11 1098.56 10.784 1098.37 10.608C1098.19 10.432 1097.98 10.344 1097.72 10.344H1086.2C1085.67 10.344 1085.19 10.216 1084.74 9.96C1084.31 9.688 1083.96 9.336 1083.71 8.904C1083.45 8.472 1083.32 7.992 1083.32 7.464V3.6C1083.32 3.072 1083.45 2.592 1083.71 2.16C1083.96 1.712 1084.31 1.36 1084.74 1.104C1085.19 0.847999 1085.67 0.719999 1086.2 0.719999H1097.72C1098.25 0.719999 1098.73 0.847999 1099.16 1.104C1099.61 1.36 1099.96 1.712 1100.22 2.16C1100.47 2.592 1100.6 3.072 1100.6 3.6V4.272H1098.66V3.6C1098.66 3.344 1098.56 3.128 1098.37 2.952C1098.19 2.76 1097.98 2.664 1097.72 2.664H1086.2C1085.95 2.664 1085.72 2.76 1085.53 2.952C1085.35 3.128 1085.27 3.344 1085.27 3.6V7.464C1085.27 7.72 1085.35 7.936 1085.53 8.112C1085.72 8.288 1085.95 8.376 1086.2 8.376H1097.72C1098.25 8.376 1098.73 8.512 1099.16 8.784C1099.61 9.04 1099.96 9.384 1100.22 9.816C1100.47 10.248 1100.6 10.728 1100.6 11.256V15.12C1100.6 15.648 1100.47 16.136 1100.22 16.584C1099.96 17.016 1099.61 17.36 1099.16 17.616C1098.73 17.872 1098.25 18 1097.72 18H1086.2ZM1118.26 18L1108.25 0.719999H1110.53L1119.39 16.104L1128.22 0.719999H1130.5L1120.51 18H1118.26ZM1132.58 18V0.719999H1134.55V18H1132.58ZM1151.59 18L1145.95 11.28H1148.49L1154.16 17.976V18H1151.59ZM1137 18V0.743999H1151.4C1151.93 0.743999 1152.41 0.879999 1152.84 1.152C1153.29 1.408 1153.64 1.752 1153.89 2.184C1154.15 2.616 1154.28 3.096 1154.28 3.624V8.688C1154.28 9.216 1154.15 9.696 1153.89 10.128C1153.64 10.56 1153.29 10.912 1152.84 11.184C1152.41 11.44 1151.93 11.568 1151.4 11.568H1138.94V18H1137ZM1139.88 9.6H1151.4C1151.65 9.6 1151.87 9.512 1152.05 9.336C1152.24 9.16 1152.33 8.944 1152.33 8.688V3.624C1152.33 3.368 1152.24 3.152 1152.05 2.976C1151.87 2.784 1151.65 2.688 1151.4 2.688H1139.88C1139.62 2.688 1139.4 2.784 1139.21 2.976C1139.03 3.152 1138.94 3.368 1138.94 3.624V8.688C1138.94 8.944 1139.03 9.16 1139.21 9.336C1139.4 9.512 1139.62 9.6 1139.88 9.6ZM1159.15 18C1158.63 18 1158.14 17.872 1157.69 17.616C1157.26 17.36 1156.91 17.016 1156.66 16.584C1156.4 16.136 1156.27 15.648 1156.27 15.12V0.719999H1158.22V15.12C1158.22 15.376 1158.31 15.6 1158.48 15.792C1158.67 15.968 1158.9 16.056 1159.15 16.056H1170.67C1170.93 16.056 1171.15 15.968 1171.32 15.792C1171.51 15.6 1171.61 15.376 1171.61 15.12V0.719999H1173.55V15.12C1173.55 15.648 1173.43 16.136 1173.17 16.584C1172.91 17.016 1172.56 17.36 1172.11 17.616C1171.68 17.872 1171.2 18 1170.67 18H1159.15ZM1178.48 18C1177.95 18 1177.46 17.872 1177.01 17.616C1176.58 17.36 1176.24 17.016 1175.98 16.584C1175.73 16.136 1175.6 15.648 1175.6 15.12V14.448H1177.54V15.12C1177.54 15.376 1177.63 15.6 1177.81 15.792C1178 15.968 1178.22 16.056 1178.48 16.056H1190C1190.25 16.056 1190.47 15.968 1190.65 15.792C1190.84 15.6 1190.93 15.376 1190.93 15.12V11.256C1190.93 11 1190.84 10.784 1190.65 10.608C1190.47 10.432 1190.25 10.344 1190 10.344H1178.48C1177.95 10.344 1177.46 10.216 1177.01 9.96C1176.58 9.688 1176.24 9.336 1175.98 8.904C1175.73 8.472 1175.6 7.992 1175.6 7.464V3.6C1175.6 3.072 1175.73 2.592 1175.98 2.16C1176.24 1.712 1176.58 1.36 1177.01 1.104C1177.46 0.847999 1177.95 0.719999 1178.48 0.719999H1190C1190.53 0.719999 1191.01 0.847999 1191.44 1.104C1191.89 1.36 1192.24 1.712 1192.49 2.16C1192.75 2.592 1192.88 3.072 1192.88 3.6V4.272H1190.93V3.6C1190.93 3.344 1190.84 3.128 1190.65 2.952C1190.47 2.76 1190.25 2.664 1190 2.664H1178.48C1178.22 2.664 1178 2.76 1177.81 2.952C1177.63 3.128 1177.54 3.344 1177.54 3.6V7.464C1177.54 7.72 1177.63 7.936 1177.81 8.112C1178 8.288 1178.22 8.376 1178.48 8.376H1190C1190.53 8.376 1191.01 8.512 1191.44 8.784C1191.89 9.04 1192.24 9.384 1192.49 9.816C1192.75 10.248 1192.88 10.728 1192.88 11.256V15.12C1192.88 15.648 1192.75 16.136 1192.49 16.584C1192.24 17.016 1191.89 17.36 1191.44 17.616C1191.01 17.872 1190.53 18 1190 18H1178.48ZM1210.54 18L1200.53 0.719999H1202.81L1211.66 16.104L1220.5 0.719999H1222.78L1212.79 18H1210.54ZM1224.86 18V0.719999H1226.83V18H1224.86ZM1243.87 18L1238.23 11.28H1240.77L1246.43 17.976V18H1243.87ZM1229.27 18V0.743999H1243.67C1244.2 0.743999 1244.68 0.879999 1245.11 1.152C1245.56 1.408 1245.91 1.752 1246.17 2.184C1246.43 2.616 1246.55 3.096 1246.55 3.624V8.688C1246.55 9.216 1246.43 9.696 1246.17 10.128C1245.91 10.56 1245.56 10.912 1245.11 11.184C1244.68 11.44 1244.2 11.568 1243.67 11.568H1231.22V18H1229.27ZM1232.15 9.6H1243.67C1243.93 9.6 1244.15 9.512 1244.32 9.336C1244.51 9.16 1244.61 8.944 1244.61 8.688V3.624C1244.61 3.368 1244.51 3.152 1244.32 2.976C1244.15 2.784 1243.93 2.688 1243.67 2.688H1232.15C1231.9 2.688 1231.67 2.784 1231.48 2.976C1231.31 3.152 1231.22 3.368 1231.22 3.624V8.688C1231.22 8.944 1231.31 9.16 1231.48 9.336C1231.67 9.512 1231.9 9.6 1232.15 9.6ZM1251.43 18C1250.9 18 1250.41 17.872 1249.97 17.616C1249.53 17.36 1249.19 17.016 1248.93 16.584C1248.68 16.136 1248.55 15.648 1248.55 15.12V0.719999H1250.49V15.12C1250.49 15.376 1250.58 15.6 1250.76 15.792C1250.95 15.968 1251.17 16.056 1251.43 16.056H1262.95C1263.21 16.056 1263.42 15.968 1263.6 15.792C1263.79 15.6 1263.89 15.376 1263.89 15.12V0.719999H1265.83V15.12C1265.83 15.648 1265.7 16.136 1265.45 16.584C1265.19 17.016 1264.84 17.36 1264.39 17.616C1263.96 17.872 1263.48 18 1262.95 18H1251.43ZM1270.75 18C1270.23 18 1269.74 17.872 1269.29 17.616C1268.86 17.36 1268.51 17.016 1268.26 16.584C1268 16.136 1267.87 15.648 1267.87 15.12V14.448H1269.82V15.12C1269.82 15.376 1269.91 15.6 1270.08 15.792C1270.27 15.968 1270.5 16.056 1270.75 16.056H1282.27C1282.53 16.056 1282.75 15.968 1282.92 15.792C1283.11 15.6 1283.21 15.376 1283.21 15.12V11.256C1283.21 11 1283.11 10.784 1282.92 10.608C1282.75 10.432 1282.53 10.344 1282.27 10.344H1270.75C1270.23 10.344 1269.74 10.216 1269.29 9.96C1268.86 9.688 1268.51 9.336 1268.26 8.904C1268 8.472 1267.87 7.992 1267.87 7.464V3.6C1267.87 3.072 1268 2.592 1268.26 2.16C1268.51 1.712 1268.86 1.36 1269.29 1.104C1269.74 0.847999 1270.23 0.719999 1270.75 0.719999H1282.27C1282.8 0.719999 1283.28 0.847999 1283.71 1.104C1284.16 1.36 1284.51 1.712 1284.77 2.16C1285.03 2.592 1285.15 3.072 1285.15 3.6V4.272H1283.21V3.6C1283.21 3.344 1283.11 3.128 1282.92 2.952C1282.75 2.76 1282.53 2.664 1282.27 2.664H1270.75C1270.5 2.664 1270.27 2.76 1270.08 2.952C1269.91 3.128 1269.82 3.344 1269.82 3.6V7.464C1269.82 7.72 1269.91 7.936 1270.08 8.112C1270.27 8.288 1270.5 8.376 1270.75 8.376H1282.27C1282.8 8.376 1283.28 8.512 1283.71 8.784C1284.16 9.04 1284.51 9.384 1284.77 9.816C1285.03 10.248 1285.15 10.728 1285.15 11.256V15.12C1285.15 15.648 1285.03 16.136 1284.77 16.584C1284.51 17.016 1284.16 17.36 1283.71 17.616C1283.28 17.872 1282.8 18 1282.27 18H1270.75Z" fill="white"/>
</svg>
